<svg xmlns="http://www.w3.org/2000/svg" viewBox="0 0 89.87 81.5"><defs><style>.cls-1{fill:#312213;}.cls-2{fill:#ba9312;}</style></defs><g id="Spielfeld_leer" data-name="Spielfeld leer"><path d="M58.13,33.92l1,.57c.71.39.8.62.5,1.36-.06.12-.1.25-.17.42a3.18,3.18,0,0,1,1.63,2.64A2.1,2.1,0,0,0,62,40.4a.71.71,0,0,1,.2.53c0,2,.14,4,.1,6,0,2.55-.19,5.1-.3,7.65,0,.58-.09,1.16-.14,1.72a3.7,3.7,0,0,1,1.19.47c.25.25.28.72.44,1.17-.06,0,0,0,0,0,.67,0,.75-.08.89.88,0,.24.07.47.11.71a.66.66,0,0,0,.07.15l1.22-.13a3.82,3.82,0,0,1,1.86.26,1,1,0,0,1,.72.86A6.49,6.49,0,0,1,68.49,62a1.48,1.48,0,0,1-.31.73,2.8,2.8,0,0,1-1.26.85l-.52.18c0,.57,0,1.11,0,1.65s-.16.59-.63.64h-.15c-.86,0-1.71.09-2.57.1-1.59,0-3.18,0-4.78,0a3.68,3.68,0,0,1-.86-.14,1.17,1.17,0,0,1-.94-1,8.59,8.59,0,0,1-3.58.39,5.34,5.34,0,0,1-1-.11,1.1,1.1,0,0,1-1-1.06c0-.48,0-1,0-1.53l-6.34.15v1.26a1,1,0,0,1-.74,1,7.38,7.38,0,0,1-4,.24,1.69,1.69,0,0,1-1.53-2v-.51h-.75c0,.09-.12.18-.18.29a.55.55,0,0,1-.56.28l-1.64-.14H35c0,.32,0,.62,0,.92,0,.57-.21.77-.78.78l-2.72.06c-.39,0-.78,0-1.23,0,0,0,0,0,0,.06-.15.74-.56.87-1.25.85-1,0-2-.11-3-.16a2.7,2.7,0,0,1-.41,0c-.83-.17-.94-.08-1-1,0-.32-.22-.42-.61-.35l-1.1.23a6.48,6.48,0,0,1-2.7-.15,1.18,1.18,0,0,1-.79-.67,3.74,3.74,0,0,1-.35-1.65,1.18,1.18,0,0,1,.49-.86,5.26,5.26,0,0,1,1.87-.95l.47-.14-.4-.61c-.38-.61-.36-.82.2-1.26.33-.26.71-.47,1.06-.71l.51-.34a1.46,1.46,0,0,0,0-.17,1.32,1.32,0,0,1,.35-1.79c.32-.28.63-.57,1-.83a.62.62,0,0,0,.26-.61,112.83,112.83,0,0,1-.27-12.74,2.17,2.17,0,0,1,0-.26c0-.51.08-.56.61-.62l.26,0,0-.5a1,1,0,0,1,.92-1.15c.4-.11.57-.29.51-.7a.94.94,0,0,1,.68-1.11c.66-.29.72-.45.53-1.14,0-.17-.09-.33-.14-.51l.42-.48-.3-.42a37.14,37.14,0,0,0-4.32-4.89c-1-1-1-1-1-2.43,0-.5,0-1,.05-1.49a.87.87,0,0,1,.46-.81A8.25,8.25,0,0,0,26,21.88c.51-.72,1-1.45,1.48-2.17a7.56,7.56,0,0,1,4.69-3.09,3.89,3.89,0,0,0,1-.41,7.46,7.46,0,0,1,4.12-.84.8.8,0,0,1,.49.23.72.72,0,0,0,.64.22c1.87,0,3.74-.08,5.61-.09,1.08,0,2.16,0,3.24.09a.82.82,0,0,0,.64-.22,1.19,1.19,0,0,1,.69-.27A7.08,7.08,0,0,1,52,16a11.59,11.59,0,0,0,2.34.88,6.94,6.94,0,0,1,3.69,2.55c.45.61.84,1.26,1.3,1.86a29.51,29.51,0,0,0,1.86,2.32,6.36,6.36,0,0,0,1.31,1,1,1,0,0,1,.53.86c0,.77.05,1.54.1,2.31a1.32,1.32,0,0,1-.46,1.09,37,37,0,0,0-4.26,4.59c-.09.13-.19.25-.27.37A.38.38,0,0,0,58.13,33.92ZM33.68,41a39.13,39.13,0,0,0,0,6.57c6.46,0,12.93,0,19.45-.13,0-2.18,0-4.3-.07-6.44ZM52.76,54.23c.1-1.48.25-2.91.24-4.33-.8-.22-18.92-.88-19.41-.7.06,2.12.18,4.24.4,6.38l.47,0,15.32-.1a2.14,2.14,0,0,0,.77-.23c.56-.26,1.1-.54,1.66-.81ZM54.47,41a120.24,120.24,0,0,1-1.26,20.76l1.16-.19c0-.14,0-.24,0-.34,0-.84.13-1,1-1.07.27,0,.54,0,.82,0s.29,0,.49-.07A122.57,122.57,0,0,0,57.52,41Zm-3.3-20.31c-.09-.28-.13-.45-.2-.63a6.36,6.36,0,0,0-2.87-3.3,2,2,0,0,0-.81-.26,80.37,80.37,0,0,0-8.78-.06,2.44,2.44,0,0,0-1.44.59,7.59,7.59,0,0,0-1.94,2.62c-.13.27-.24.55-.39.91C40.25,20.32,45.67,20.42,51.17,20.66ZM33.25,60.85A129.45,129.45,0,0,1,32.16,41h-3a123.76,123.76,0,0,0,.53,16.13c.49.15,1,.21,1.14.75s-.21.9-.42,1.35A12,12,0,0,1,33.25,60.85ZM51.79,23l-.37-1.71c-5.56-.23-11.06-.35-16.57-.11a1.5,1.5,0,0,0,0,.22,1.59,1.59,0,0,0,.07.2A2.89,2.89,0,0,0,37,23.21,10.13,10.13,0,0,0,40,23.4l4.82-.17,5.91-.13C51,23.09,51.35,23,51.79,23Zm-3-6.92c.22.16.34.24.47.32a6.8,6.8,0,0,1,2.18,2.22,10.09,10.09,0,0,1,1.1,2.7A27.3,27.3,0,0,1,53.29,27c0,.69.21.88.9.89.84,0,1.68,0,2.52,0,.5,0,.69-.18.68-.69,0-.34-.06-.68-.1-1-.12-.88-.37-1.11-1.27-1.17-.59,0-1.19,0-1.79-.08a3.76,3.76,0,0,1-.6-.15c0-.38.23-.4.42-.4.62,0,1.23,0,1.85,0,.18,0,.36,0,.52,0-.29-.87-.58-1.69-.83-2.52a13.75,13.75,0,0,0-1.42-3.24,5.42,5.42,0,0,0-3.74-2.56A3.07,3.07,0,0,0,48.8,16.07Zm-11.9,0a4.32,4.32,0,0,0-2.49.27,6.15,6.15,0,0,0-3.34,3.25c-.42.85-.7,1.78-1,2.67-.25.66-.49,1.31-.73,2a1.7,1.7,0,0,0-.05.23c.31,0,.58-.06.85-.06q.87,0,1.74,0c.09,0,.17.16.26.25-.09.08-.16.2-.25.22-.34.05-.68.06-1,.08s-.93,0-1.39.06a.91.91,0,0,0-1,.89,10.69,10.69,0,0,0-.11,1.38c0,.45.15.58.6.59s1.13,0,1.69,0c.36,0,.72,0,1.08,0s.65-.22.68-.72.06-1.06.09-1.59a20,20,0,0,1,.9-5.14,7.37,7.37,0,0,1,3.2-4.13A3.4,3.4,0,0,0,36.9,16.06ZM36,57.31a9.51,9.51,0,0,0,1.82,1.92,5.3,5.3,0,0,0,2.59,1,13.68,13.68,0,0,0,4-.14,5.24,5.24,0,0,0,3.46-1.85l.4-.54C44.06,57.52,40,57.4,36,57.31ZM25,47.57h3.41V41H25.06C25,43.2,25,45.35,25,47.57ZM29.7,21.1c-.68,0-1.27.12-1.86.1a1,1,0,0,0-1,.58,9.08,9.08,0,0,1-2.32,2.8s0,.08-.06.16l.64,0,1.69-.12c.19,0,.36,0,.39.24s-.11.35-.32.39a3.42,3.42,0,0,1-.46,0l-3.05.22c0,.6-.05,1.18,0,1.75,0,.1.14.24.25.28a1.21,1.21,0,0,0,.5.1l3.08.14c.14,0,.29,0,.49,0V26.27a2.77,2.77,0,0,1,.7-1.83A8.76,8.76,0,0,0,29.7,21.1Zm10.91,7.84,5,.11a4.9,4.9,0,0,0,.08-2.18,2.29,2.29,0,0,0-2.27-2.11,2.61,2.61,0,0,0-3.07,2.31A3.35,3.35,0,0,0,40.61,28.94ZM28.75,54.59l-.33-5.7a6.91,6.91,0,0,0-.69-.09c-.65,0-1.3,0-1.95,0a4.39,4.39,0,0,1-.76-.18c0,1,.08,2,.14,3.1a.86.86,0,0,0,.16.47,12.15,12.15,0,0,0,1.22,1.45A3.92,3.92,0,0,0,28.75,54.59Zm31.28-7c0-1.16,0-2.25.1-3.34s.23-2.14.35-3.22H58.23v6.56ZM40.48,24.85c-1.15,0-2.23,0-3.3,0a1.26,1.26,0,0,0-.68.32,5.88,5.88,0,0,0-1.44,2.1,1.26,1.26,0,0,0,0,.3,19.36,19.36,0,0,0,3.56.12.76.76,0,0,0,.66-.42,3.2,3.2,0,0,0,.26-.56A4.73,4.73,0,0,1,40.48,24.85Zm11.4,2.71a3.75,3.75,0,0,0,.06-2.22.51.51,0,0,0-.52-.4c-.46,0-.93,0-1.39,0a1.45,1.45,0,0,0-.67.2,2.68,2.68,0,0,0-1.26,1.56,1.37,1.37,0,0,0,0,.94A14.16,14.16,0,0,0,51.88,27.56ZM28.43,63.49v-.08a4.47,4.47,0,0,0,.52,0,.83.83,0,0,0,.69-1.33,2,2,0,0,0-.26-.38,3.19,3.19,0,0,0-1.88-1,2.34,2.34,0,0,0-1.41.09.91.91,0,0,0-.47,1.32,2.08,2.08,0,0,0,1.21,1C27.36,63.27,27.9,63.36,28.43,63.49Zm-5.75-2.78,0,.07c-.17,0-.34,0-.51,0a4.56,4.56,0,0,0-2.39,1c-.4.33-.33.72.16.88a1.85,1.85,0,0,0,.8.13,24.07,24.07,0,0,0,2.53-.36,2,2,0,0,0,.83-.48c.4-.33.35-.72-.12-.92A8.87,8.87,0,0,0,22.68,60.71Zm3.85-.79c.23,0,.54,0,.83-.1a4.7,4.7,0,0,0,2.37-1,1,1,0,0,0,.35-.68c0-.34-.45-.33-.73-.32a6.26,6.26,0,0,0-2.58.58,3.86,3.86,0,0,0-.77.49c-.23.2-.46.47-.33.8s.46.24.73.26ZM66,60.19a5.6,5.6,0,0,0-2.11.39,2.64,2.64,0,0,0-.79.54c-.22.23-.14.48.14.63a1.79,1.79,0,0,0,.39.13,5.11,5.11,0,0,0,2.82-.26,3.37,3.37,0,0,0,.83-.51.62.62,0,0,0,.24-.45c0-.13-.25-.28-.41-.32C66.79,60.26,66.42,60.24,66,60.19ZM54.32,35.05a3.43,3.43,0,0,0,.47,0,.77.77,0,0,0,.71-.57c.08-.36-.18-.57-.44-.74a4.32,4.32,0,0,0-2.17-.7,1.76,1.76,0,0,0-.6.1c-.32.11-.61.29-.65.66s.23.59.53.74A4.73,4.73,0,0,0,54.32,35.05Zm5,28.85c.67-.08,1.2-.11,1.72-.2a3.39,3.39,0,0,0,.92-.29c.33-.16.34-.44,0-.62a2.3,2.3,0,0,0-.72-.26,7.89,7.89,0,0,0-3.06.08,2.28,2.28,0,0,0-.7.3.85.85,0,0,0-.35.45c0,.24.23.31.43.37a1.64,1.64,0,0,0,.45.1ZM58.06,38.07a2.39,2.39,0,0,0,1.17,2,.62.62,0,0,0,1-.22,2.36,2.36,0,0,0-1-2.92.64.64,0,0,0-.91.3A6,6,0,0,0,58.06,38.07ZM41.22,37a3,3,0,0,0,1.43-.57,3.21,3.21,0,0,0,1.23-1.54c.17-.51-.1-.82-.64-.69a3.49,3.49,0,0,0-1,.35,3.79,3.79,0,0,0-1.6,1.62C40.45,36.61,40.67,37,41.22,37Zm10.51-4.55c.48-.09.89-.14,1.28-.25a.75.75,0,0,0,.46-.34c.11-.24-.13-.4-.31-.52a4.41,4.41,0,0,0-2.46-.79,2,2,0,0,0-.6.1c-.5.17-.62.56-.28.95a1.49,1.49,0,0,0,.6.46C50.86,32.19,51.32,32.29,51.73,32.41ZM25.13,65a.81.81,0,0,0,.26.09c1.14.09,2.28.19,3.43.24.65,0,.84-.32.61-1-1.2-.13-2.42-.27-3.65-.39-.45,0-.65.16-.68.63A3.4,3.4,0,0,0,25.13,65Zm10-29.48a5.54,5.54,0,0,0-2.67,1.06,1.37,1.37,0,0,0-.36.36c-.09.18-.21.45-.14.59a.7.7,0,0,0,.57.2A5.91,5.91,0,0,0,34.91,37a3.59,3.59,0,0,0,.57-.44c.2-.2.48-.47.32-.74S35.34,35.63,35.09,35.55Zm11.74,3.34a6,6,0,0,0,2.23-.84,5.31,5.31,0,0,0,.85-.72c.16-.16.29-.41.11-.6a1.41,1.41,0,0,0-.57-.25.26.26,0,0,0-.15,0,4.43,4.43,0,0,0-2.5,1.3,1.71,1.71,0,0,0-.38.6C46.29,38.7,46.44,38.88,46.83,38.89Zm5.1,24.21a.78.78,0,0,0,.71.39,6.8,6.8,0,0,0,3-.21,2,2,0,0,0,.54-.28.33.33,0,0,0,0-.59,1.57,1.57,0,0,0-.63-.21,7.44,7.44,0,0,0-2.93.29A1,1,0,0,0,51.93,63.1ZM36.73,31.22a8.09,8.09,0,0,0-4,1l.17,1,3.88-1.1Zm21.47,17L58,52.13a5.06,5.06,0,0,0,1.77-3.82,1.86,1.86,0,0,0-.34,0ZM31.4,17.65c-1.15.08-3,1.61-3.61,2.92.64,0,1.27-.05,1.89-.1a.49.49,0,0,0,.36-.23C30.51,19.38,31,18.5,31.4,17.65ZM37,62.85c0-.25.08-.48.1-.71a.39.39,0,0,0-.37-.46c-.81-.12-1.62-.23-2.44-.32a1.24,1.24,0,0,0-.59.13.75.75,0,0,0-.35.74c.08.29.33.32.57.35l1,.08Zm-4.18-28.4a1.07,1.07,0,0,0,1.09.46,5.93,5.93,0,0,0,2.2-.42,1.64,1.64,0,0,0,.48-.28c.29-.27.24-.53-.13-.67A3.32,3.32,0,0,0,32.77,34.45Zm22.29,27a6.92,6.92,0,0,1,1.43.38c.8.41,1.54.09,2.36,0V61a9.23,9.23,0,0,0-3.84,0ZM54.34,17.6l1.72,3.32a.54.54,0,0,0,.68-.27c.14-.21.26-.44.39-.66a.5.5,0,0,0-.12-.72,7.13,7.13,0,0,0-2.18-1.5C54.67,17.7,54.49,17.65,54.34,17.6ZM41.44,38.09a2.9,2.9,0,0,0,.6.33,6.86,6.86,0,0,0,3.09,0,.73.73,0,0,0,.19-.07c.24-.12.44-.29.4-.59s-.29-.31-.51-.34a5.87,5.87,0,0,0-3.26.38A4,4,0,0,0,41.44,38.09Zm-3.57-3.16a4.82,4.82,0,0,0-.71.14.59.59,0,0,0-.48.54.61.61,0,0,0,.37.57,2,2,0,0,0,.42.19,2.74,2.74,0,0,0,2-.07c.21-.08.48-.17.45-.42a.83.83,0,0,0-.34-.52A2.83,2.83,0,0,0,37.87,34.93Zm-6.29-1.55A23.55,23.55,0,0,0,28.4,35.3l.47.87a16,16,0,0,0,3.25-2.11ZM39,63.43c-.08.61.09,1,.6,1.19a6.4,6.4,0,0,0,1.5.28,5.47,5.47,0,0,0,2.76-.46v-.63A6.1,6.1,0,0,1,39,63.43ZM41.48,32.1a2,2,0,0,0-.4-.25,4.1,4.1,0,0,0-3.26.42.62.62,0,0,0-.36.63,1.85,1.85,0,0,0,1.34.16c.64-.09,1.28-.24,1.91-.38A.94.94,0,0,0,41.48,32.1Zm2.25,30.84c-.78-.67-3.63-.89-4.44-.34C39.77,63.56,42.82,63.8,43.73,62.94ZM50.81,34.2a.54.54,0,0,0-.58-.61,2.53,2.53,0,0,0-2,1.57c-.12.44.08.7.54.69a2.58,2.58,0,0,0,2-1.44A1.49,1.49,0,0,0,50.81,34.2ZM29.93,39.4c-1.13,0-2.2-.1-3.27-.11-.67,0-.87.28-.79,1H30ZM19.62,63.21a.79.79,0,0,0,.72.79,7.17,7.17,0,0,0,3.16-.09,2.26,2.26,0,0,0,.73-.36.74.74,0,0,0,.26-1A6.81,6.81,0,0,1,19.62,63.21Zm41.75,2.1L65.69,65a3.14,3.14,0,0,0,0-.33c0-.08,0-.16,0-.27a10.91,10.91,0,0,0-4.44.27ZM30.6,64.38a12.52,12.52,0,0,0,3.65-.14l0-.68a11.26,11.26,0,0,0-3.06-.08C30.53,63.57,30.47,63.7,30.6,64.38ZM42.32,40.25h3.56l-.09-.81a9.16,9.16,0,0,0-3.53,0ZM22.35,60c.83-.52,1.6-1,2.37-1.46A.5.5,0,0,0,25,58c0-.2-.06-.39-.11-.66a20.57,20.57,0,0,0-3.11,1.85Zm10,2.12c.45-.53.43-.89-.09-1.21s-1.19-.67-1.79-1a1.45,1.45,0,0,0-.29-.11.39.39,0,0,0-.52.18c-.12.24-.15.46.08.64a1.85,1.85,0,0,0,.33.24ZM57.65,36.61c-1.17-.25-2.23-.58-3.39-.71l-.07.92,3.21.76ZM63.12,62.5c0,.46.11.61.54.71a5.76,5.76,0,0,0,2.19,0,3.09,3.09,0,0,0,1.84-.92c.17-.17.28-.34.08-.61A6,6,0,0,1,63.12,62.5ZM57.2,64.43c-.2.6,0,1,.72,1s1.27,0,1.9,0c.17,0,.34,0,.53,0v-.81Zm-9.72-33,0,.06a2.77,2.77,0,0,0-.5.1c-.23.08-.29.26-.2.5a2,2,0,0,0,2.15,1c.38-.14.47-.36.26-.71a1.1,1.1,0,0,0-.37-.4C48.36,31.79,47.92,31.63,47.48,31.45Zm3.16,6.24a14.36,14.36,0,0,1-1.81,1.22,14.78,14.78,0,0,1-2,.68l.44.61a8.53,8.53,0,0,0,2.67-1.06,2.63,2.63,0,0,0,.65-.64A.76.76,0,0,0,50.64,37.69Zm-20.47.91c.59.48,1.1.92,1.64,1.34a1.42,1.42,0,0,0,1.7,0l-2.79-2Zm15.17-6.22a6,6,0,0,0-3.38.3l.1.74L45.34,33ZM56.2,64.05a8.21,8.21,0,0,1-4.71-.2c0,.67.18.92.73.95.8,0,1.61,0,2.41,0a6.06,6.06,0,0,0,1.12-.17A.49.49,0,0,0,56.2,64.05ZM27.85,38.34l3.06-1.62-.32-.48a21.32,21.32,0,0,0-3.21,1.42Zm28.66-3.41L58.74,36c.47-.6.44-.84-.17-1.17-.43-.24-.88-.45-1.32-.66l-.5-.2Zm-1.75,3.82c.7.51,1.32,1,2,1.42a1.56,1.56,0,0,0,1.2,0l0-.12-2.74-2Zm-7.3-2.85a2.78,2.78,0,0,0-.68-.25c-.63,0-1.26-.06-1.89-.06-.22,0-.44.06-.45.37s.19.38.43.4l2.14.11C47.34,36.48,47.45,36.26,47.46,35.9Zm4.11,4.2,2.38-2-.45-.57L51,39.48Zm-13.88.14c.09-.67,0-.88-.43-.87-.63,0-1.27.05-1.89.12-.45.06-.53.23-.4.75ZM37.9,38l2.71,2,.47-.6-2.79-1.92Zm-5.07.41a.9.9,0,0,0,1,.36,3.89,3.89,0,0,0,2.39-1.25.5.5,0,0,0,0-.76A6.1,6.1,0,0,1,32.83,38.45ZM61.57,59.78l2-.24v-.9a5.15,5.15,0,0,0-1.88.19ZM50.9,36.15A2.29,2.29,0,0,0,51.73,35l-.37-.25-.86,1.08Z"/><path class="cls-1" d="M33.68,41H53c.12,2.14.09,4.26.07,6.44-6.52.09-13,.14-19.45.13A39.13,39.13,0,0,1,33.68,41Z"/><path class="cls-1" d="M52.76,54.23l-.55.23c-.56.27-1.1.55-1.66.81a2.14,2.14,0,0,1-.77.23l-15.32.1-.47,0c-.22-2.14-.34-4.26-.4-6.38.49-.18,18.61.48,19.41.7C53,51.32,52.86,52.75,52.76,54.23Z"/><path class="cls-1" d="M54.47,41h3.05A122.57,122.57,0,0,1,56.71,60c-.2,0-.34.06-.49.07s-.55,0-.82,0c-.86.09-1,.23-1,1.07,0,.1,0,.2,0,.34l-1.16.19A120.24,120.24,0,0,0,54.47,41Zm1.08,15a.33.33,0,0,0,.31-.36c0-.21-.13-.36-.35-.34a.34.34,0,0,0-.35.36C55.16,55.89,55.29,56,55.55,56Zm1.05-8.18c-.24-.16-.37-.31-.52-.34a.3.3,0,0,0-.36.33.31.31,0,0,0,.35.34C56.22,48.14,56.35,48,56.6,47.83Z"/><path class="cls-1" d="M51.17,20.66c-5.5-.24-10.92-.34-16.43-.13.15-.36.26-.64.39-.91A7.59,7.59,0,0,1,37.07,17a2.44,2.44,0,0,1,1.44-.59,80.37,80.37,0,0,1,8.78.06,2,2,0,0,1,.81.26A6.36,6.36,0,0,1,51,20C51,20.21,51.08,20.38,51.17,20.66Z"/><path class="cls-1" d="M33.25,60.85a12,12,0,0,0-2.89-1.64c.21-.45.58-.83.42-1.35s-.65-.6-1.14-.75A123.76,123.76,0,0,1,29.11,41h3A129.45,129.45,0,0,0,33.25,60.85ZM31.5,55.73c-.06-.31-.18-.45-.4-.42a.34.34,0,0,0-.32.38c0,.23.16.36.37.31S31.41,55.8,31.5,55.73Zm-.42-7.91c-.24-.16-.37-.3-.52-.33s-.34.13-.34.34.1.39.34.34A2.21,2.21,0,0,0,31.08,47.82Z"/><path class="cls-1" d="M51.79,23c-.44,0-.78.1-1.11.11l-5.91.13L40,23.4A10.13,10.13,0,0,1,37,23.21a2.89,2.89,0,0,1-2.12-1.62,1.59,1.59,0,0,1-.07-.2,1.5,1.5,0,0,1,0-.22c5.51-.24,11-.12,16.57.11Z"/><path class="cls-1" d="M48.8,16.07a3.07,3.07,0,0,1,1.63,0,5.42,5.42,0,0,1,3.74,2.56,13.75,13.75,0,0,1,1.42,3.24c.25.83.54,1.65.83,2.52-.16,0-.34,0-.52,0-.62,0-1.23,0-1.85,0-.19,0-.43,0-.42.4a3.76,3.76,0,0,0,.6.15c.6,0,1.2,0,1.79.08.9.06,1.15.29,1.27,1.17,0,.34.09.68.1,1,0,.51-.18.68-.68.69-.84,0-1.68,0-2.52,0-.69,0-.87-.2-.9-.89a27.3,27.3,0,0,0-.74-5.69,10.09,10.09,0,0,0-1.1-2.7,6.8,6.8,0,0,0-2.18-2.22C49.14,16.31,49,16.23,48.8,16.07Zm6.92,10.42a1.4,1.4,0,0,0-.37-.25c-.19-.06-.4.17-.39.37a.37.37,0,0,0,.35.37C55.51,27,55.71,26.8,55.72,26.49Zm-1.86-5c.32,0,.45-.13.46-.35a.3.3,0,0,0-.3-.35.35.35,0,0,0-.39.37A1.38,1.38,0,0,0,53.86,21.44Zm-2-4.22c-.14.23-.28.36-.31.51s.14.34.36.31.36-.17.3-.38S52.05,17.42,51.88,17.22Z"/><path class="cls-1" d="M36.9,16.06a3.4,3.4,0,0,1-.28.24,7.37,7.37,0,0,0-3.2,4.13,20,20,0,0,0-.9,5.14c0,.53-.05,1.06-.09,1.59s-.19.68-.68.72-.72,0-1.08,0c-.56,0-1.13,0-1.69,0s-.6-.14-.6-.59a10.69,10.69,0,0,1,.11-1.38.91.91,0,0,1,1-.89c.46,0,.93,0,1.39-.06s.68,0,1-.08c.09,0,.16-.14.25-.22-.09-.09-.17-.25-.26-.25q-.87,0-1.74,0c-.27,0-.54,0-.85.06a1.7,1.7,0,0,1,.05-.23c.24-.66.48-1.31.73-2,.34-.89.62-1.82,1-2.67a6.15,6.15,0,0,1,3.34-3.25A4.32,4.32,0,0,1,36.9,16.06ZM30.28,27c.31,0,.49-.16.49-.38a.34.34,0,0,0-.34-.36.34.34,0,0,0-.37.38A1,1,0,0,0,30.28,27Zm1.8-6.54c-.29,0-.41.12-.42.33a.32.32,0,0,0,.33.36.33.33,0,0,0,.37-.34A.3.3,0,0,0,32.08,20.43Zm2.49-3c-.22-.15-.34-.29-.48-.31s-.34.13-.34.35.12.35.32.3S34.35,17.62,34.57,17.46Z"/><path class="cls-1" d="M36,57.31c4.06.09,8.1.21,12.26.42l-.4.54a5.24,5.24,0,0,1-3.46,1.85,13.68,13.68,0,0,1-4,.14,5.3,5.3,0,0,1-2.59-1A9.51,9.51,0,0,1,36,57.31Z"/><path class="cls-1" d="M25,47.57c0-2.22-.05-4.37.06-6.57h3.35v6.57Z"/><path class="cls-1" d="M29.7,21.1a8.76,8.76,0,0,1-1.34,3.34,2.77,2.77,0,0,0-.7,1.83v1.42c-.2,0-.35,0-.49,0l-3.08-.14a1.21,1.21,0,0,1-.5-.1c-.11,0-.25-.18-.25-.28,0-.57,0-1.15,0-1.75l3.05-.22a3.42,3.42,0,0,0,.46,0c.21,0,.36-.16.32-.39s-.2-.26-.39-.24l-1.69.12-.64,0c0-.08,0-.14.06-.16a9.08,9.08,0,0,0,2.32-2.8,1,1,0,0,1,1-.58C28.43,21.22,29,21.14,29.7,21.1Z"/><path class="cls-2" d="M40.61,28.94a3.35,3.35,0,0,1-.22-1.87,2.61,2.61,0,0,1,3.07-2.31,2.29,2.29,0,0,1,2.27,2.11,4.9,4.9,0,0,1-.08,2.18Zm2.1-1.5a1.51,1.51,0,0,0,0,.48c.05.12.2.28.3.27a.65.65,0,0,0,.37-.25c.06-.06,0-.2,0-.3a1.14,1.14,0,0,1,.3-.93.65.65,0,0,0-.09-1,.85.85,0,0,0-1.16.06.63.63,0,0,0,0,.95A.78.78,0,0,1,42.71,27.44Z"/><path class="cls-1" d="M28.75,54.59a3.92,3.92,0,0,1-2.21-1,12.15,12.15,0,0,1-1.22-1.45.86.86,0,0,1-.16-.47c-.06-1.06-.1-2.12-.14-3.1a4.39,4.39,0,0,0,.76.18c.65,0,1.3,0,1.95,0a6.91,6.91,0,0,1,.69.09Z"/><path class="cls-1" d="M60,47.57h-1.8V41h2.25c-.12,1.08-.28,2.15-.35,3.22S60.06,46.41,60,47.57Z"/><path class="cls-1" d="M40.48,24.85a4.73,4.73,0,0,0-1,1.87,3.2,3.2,0,0,1-.26.56.76.76,0,0,1-.66.42A19.36,19.36,0,0,1,35,27.58a1.26,1.26,0,0,1,0-.3,5.88,5.88,0,0,1,1.44-2.1,1.26,1.26,0,0,1,.68-.32C38.25,24.83,39.33,24.85,40.48,24.85Z"/><path class="cls-1" d="M51.88,27.56a14.16,14.16,0,0,1-3.79.07,1.37,1.37,0,0,1,0-.94,2.68,2.68,0,0,1,1.26-1.56,1.45,1.45,0,0,1,.67-.2c.46,0,.93,0,1.39,0a.51.51,0,0,1,.52.4A3.75,3.75,0,0,1,51.88,27.56Z"/><path class="cls-2" d="M28.43,63.49c-.53-.13-1.07-.22-1.59-.38a2.08,2.08,0,0,1-1.21-1,.91.91,0,0,1,.47-1.32,2.34,2.34,0,0,1,1.41-.09,3.19,3.19,0,0,1,1.88,1,2,2,0,0,1,.26.38A.83.83,0,0,1,29,63.4a4.47,4.47,0,0,1-.52,0Z"/><path class="cls-2" d="M22.68,60.71A8.87,8.87,0,0,1,24,61c.47.2.52.59.12.92a2,2,0,0,1-.83.48,24.07,24.07,0,0,1-2.53.36,1.85,1.85,0,0,1-.8-.13c-.49-.16-.56-.55-.16-.88a4.56,4.56,0,0,1,2.39-1c.17,0,.34,0,.51,0Z"/><path class="cls-2" d="M26.53,59.92H26.4c-.27,0-.61,0-.73-.26s.1-.6.33-.8a3.86,3.86,0,0,1,.77-.49,6.26,6.26,0,0,1,2.58-.58c.28,0,.68,0,.73.32a1,1,0,0,1-.35.68,4.7,4.7,0,0,1-2.37,1C27.07,59.88,26.76,59.89,26.53,59.92Z"/><path class="cls-2" d="M66,60.19c.38.05.75.07,1.11.15.16,0,.38.19.41.32a.62.62,0,0,1-.24.45,3.37,3.37,0,0,1-.83.51,5.11,5.11,0,0,1-2.82.26,1.79,1.79,0,0,1-.39-.13c-.28-.15-.36-.4-.14-.63a2.64,2.64,0,0,1,.79-.54A5.6,5.6,0,0,1,66,60.19Z"/><path class="cls-2" d="M54.32,35.05a4.73,4.73,0,0,1-2.15-.56c-.3-.15-.56-.36-.53-.74s.33-.55.65-.66a1.76,1.76,0,0,1,.6-.1,4.32,4.32,0,0,1,2.17.7c.26.17.52.38.44.74a.77.77,0,0,1-.71.57A3.43,3.43,0,0,1,54.32,35.05Z"/><path class="cls-2" d="M59.37,63.9l-1.29-.07a1.64,1.64,0,0,1-.45-.1c-.2-.06-.46-.13-.43-.37a.85.85,0,0,1,.35-.45,2.28,2.28,0,0,1,.7-.3,7.89,7.89,0,0,1,3.06-.08,2.3,2.3,0,0,1,.72.26c.32.18.31.46,0,.62a3.39,3.39,0,0,1-.92.29C60.57,63.79,60,63.82,59.37,63.9Z"/><path class="cls-2" d="M58.06,38.07a6,6,0,0,1,.24-.88.64.64,0,0,1,.91-.3,2.36,2.36,0,0,1,1,2.92.62.62,0,0,1-1,.22A2.39,2.39,0,0,1,58.06,38.07Z"/><path class="cls-2" d="M41.22,37c-.55,0-.77-.35-.53-.83a3.79,3.79,0,0,1,1.6-1.62,3.49,3.49,0,0,1,1-.35c.54-.13.81.18.64.69a3.21,3.21,0,0,1-1.23,1.54A3,3,0,0,1,41.22,37Z"/><path class="cls-2" d="M51.73,32.41c-.41-.12-.87-.22-1.31-.39a1.49,1.49,0,0,1-.6-.46c-.34-.39-.22-.78.28-.95a2,2,0,0,1,.6-.1,4.41,4.41,0,0,1,2.46.79c.18.12.42.28.31.52a.75.75,0,0,1-.46.34C52.62,32.27,52.21,32.32,51.73,32.41Z"/><path class="cls-2" d="M25.13,65a3.4,3.4,0,0,1,0-.45c0-.47.23-.67.68-.63,1.23.12,2.45.26,3.65.39.23.7,0,1-.61,1-1.15,0-2.29-.15-3.43-.24A.81.81,0,0,1,25.13,65Z"/><path class="cls-2" d="M35.09,35.55c.25.08.61.1.71.27s-.12.54-.32.74a3.59,3.59,0,0,1-.57.44,5.91,5.91,0,0,1-2.42.76.7.7,0,0,1-.57-.2c-.07-.14,0-.41.14-.59a1.37,1.37,0,0,1,.36-.36A5.54,5.54,0,0,1,35.09,35.55Z"/><path class="cls-2" d="M46.83,38.89c-.39,0-.54-.19-.41-.5a1.71,1.71,0,0,1,.38-.6,4.43,4.43,0,0,1,2.5-1.3.26.26,0,0,1,.15,0,1.41,1.41,0,0,1,.57.25c.18.19,0,.44-.11.6a5.31,5.31,0,0,1-.85.72A6,6,0,0,1,46.83,38.89Z"/><path class="cls-2" d="M51.93,63.1a1,1,0,0,1,.69-.61,7.44,7.44,0,0,1,2.93-.29,1.57,1.57,0,0,1,.63.21.33.33,0,0,1,0,.59,2,2,0,0,1-.54.28,6.8,6.8,0,0,1-3,.21A.78.78,0,0,1,51.93,63.1Z"/><path class="cls-2" d="M36.73,31.22l.08.86-3.88,1.1-.17-1A8.09,8.09,0,0,1,36.73,31.22Z"/><path class="cls-1" d="M58.2,48.26h1.26a1.86,1.86,0,0,1,.34,0A5.06,5.06,0,0,1,58,52.13Z"/><path class="cls-1" d="M31.4,17.65c-.44.85-.89,1.73-1.36,2.59a.49.49,0,0,1-.36.23c-.62.05-1.25.07-1.89.1C28.4,19.26,30.25,17.73,31.4,17.65Z"/><path class="cls-2" d="M37,62.85l-2.06-.19-1-.08c-.24,0-.49-.06-.57-.35a.75.75,0,0,1,.35-.74,1.24,1.24,0,0,1,.59-.13c.82.09,1.63.2,2.44.32a.39.39,0,0,1,.37.46C37,62.37,37,62.6,37,62.85Z"/><path class="cls-2" d="M32.77,34.45a3.32,3.32,0,0,1,3.64-.91c.37.14.42.4.13.67a1.64,1.64,0,0,1-.48.28,5.93,5.93,0,0,1-2.2.42A1.07,1.07,0,0,1,32.77,34.45Z"/><path class="cls-2" d="M55.06,61.48,55,60.91a9.23,9.23,0,0,1,3.84,0v.93c-.82.07-1.56.39-2.36,0A6.92,6.92,0,0,0,55.06,61.48Z"/><path class="cls-1" d="M54.34,17.6c.15,0,.33.1.49.17A7.13,7.13,0,0,1,57,19.27a.5.5,0,0,1,.12.72c-.13.22-.25.45-.39.66a.54.54,0,0,1-.68.27Z"/><path class="cls-2" d="M41.44,38.09a4,4,0,0,1,.51-.33,5.87,5.87,0,0,1,3.26-.38c.22,0,.47,0,.51.34s-.16.47-.4.59a.73.73,0,0,1-.19.07,6.86,6.86,0,0,1-3.09,0A2.9,2.9,0,0,1,41.44,38.09Z"/><path class="cls-2" d="M37.87,34.93a2.83,2.83,0,0,1,1.7.43.83.83,0,0,1,.34.52c0,.25-.24.34-.45.42a2.74,2.74,0,0,1-2,.07,2,2,0,0,1-.42-.19.61.61,0,0,1-.37-.57.59.59,0,0,1,.48-.54A4.82,4.82,0,0,1,37.87,34.93Z"/><path class="cls-2" d="M31.58,33.38l.54.68a16,16,0,0,1-3.25,2.11l-.47-.87A23.55,23.55,0,0,1,31.58,33.38Z"/><path class="cls-2" d="M39,63.43a6.1,6.1,0,0,0,4.86.38v.63a5.47,5.47,0,0,1-2.76.46,6.4,6.4,0,0,1-1.5-.28C39.12,64.46,39,64,39,63.43Z"/><path class="cls-2" d="M41.48,32.1a.94.94,0,0,1-.77.58c-.63.14-1.27.29-1.91.38a1.85,1.85,0,0,1-1.34-.16.62.62,0,0,1,.36-.63,4.1,4.1,0,0,1,3.26-.42A2,2,0,0,1,41.48,32.1Z"/><path class="cls-2" d="M43.73,62.94c-.91.86-4,.62-4.44-.34C40.1,62.05,43,62.27,43.73,62.94Z"/><path class="cls-2" d="M50.81,34.2a1.49,1.49,0,0,1-.05.21,2.58,2.58,0,0,1-2,1.44c-.46,0-.66-.25-.54-.69a2.53,2.53,0,0,1,2-1.57A.54.54,0,0,1,50.81,34.2Z"/><path class="cls-2" d="M29.93,39.4l0,.85h-4.1c-.08-.68.12-1,.79-1C27.73,39.3,28.8,39.36,29.93,39.4Z"/><path class="cls-2" d="M19.62,63.21a6.81,6.81,0,0,0,4.87-.63.74.74,0,0,1-.26,1,2.26,2.26,0,0,1-.73.36,7.17,7.17,0,0,1-3.16.09A.79.79,0,0,1,19.62,63.21Z"/><path class="cls-2" d="M61.37,65.31l-.12-.67a10.91,10.91,0,0,1,4.44-.27c0,.11,0,.19,0,.27a3.14,3.14,0,0,1,0,.33Z"/><path class="cls-2" d="M30.6,64.38c-.13-.68-.07-.81.56-.9a11.26,11.26,0,0,1,3.06.08l0,.68A12.52,12.52,0,0,1,30.6,64.38Z"/><path class="cls-2" d="M42.32,40.25l-.06-.86a9.16,9.16,0,0,1,3.53,0l.09.81Z"/><path class="cls-2" d="M22.35,60l-.58-.82a20.57,20.57,0,0,1,3.11-1.85c.05.27.08.46.11.66a.5.5,0,0,1-.27.55C24,59,23.18,59.52,22.35,60Z"/><path class="cls-2" d="M32.32,62.16,30,60.91a1.85,1.85,0,0,1-.33-.24c-.23-.18-.2-.4-.08-.64a.39.39,0,0,1,.52-.18,1.45,1.45,0,0,1,.29.11c.6.32,1.2.63,1.79,1S32.77,61.63,32.32,62.16Z"/><path class="cls-2" d="M57.65,36.61l-.25,1-3.21-.76.07-.92C55.42,36,56.48,36.36,57.65,36.61Z"/><path class="cls-2" d="M63.12,62.5a6,6,0,0,0,4.65-.81c.2.27.09.44-.08.61a3.09,3.09,0,0,1-1.84.92,5.76,5.76,0,0,1-2.19,0C63.23,63.11,63.14,63,63.12,62.5Z"/><path class="cls-2" d="M57.2,64.43l3.15.19v.81c-.19,0-.36,0-.53,0-.63,0-1.27,0-1.9,0S57,65,57.2,64.43Z"/><path class="cls-2" d="M47.48,31.45c.44.18.88.34,1.31.54a1.1,1.1,0,0,1,.37.4c.21.35.12.57-.26.71a2,2,0,0,1-2.15-1c-.09-.24,0-.42.2-.5a2.77,2.77,0,0,1,.5-.1Z"/><path class="cls-2" d="M50.64,37.69a.76.76,0,0,1-.09.81,2.63,2.63,0,0,1-.65.64,8.53,8.53,0,0,1-2.67,1.06l-.44-.61a14.78,14.78,0,0,0,2-.68A14.36,14.36,0,0,0,50.64,37.69Z"/><path class="cls-2" d="M30.17,38.6l.55-.65,2.79,2a1.42,1.42,0,0,1-1.7,0C31.27,39.52,30.76,39.08,30.17,38.6Z"/><path class="cls-2" d="M45.34,32.38V33l-3.28.43-.1-.74A6,6,0,0,1,45.34,32.38Z"/><path class="cls-2" d="M56.2,64.05a.49.49,0,0,1-.45.57,6.06,6.06,0,0,1-1.12.17c-.8,0-1.61.06-2.41,0-.55,0-.71-.28-.73-.95A8.21,8.21,0,0,0,56.2,64.05Z"/><path class="cls-2" d="M27.85,38.34l-.47-.68a21.32,21.32,0,0,1,3.21-1.42l.32.48Z"/><path class="cls-2" d="M56.51,34.93l.24-.92.5.2c.44.21.89.42,1.32.66.61.33.64.57.17,1.17Z"/><path class="cls-2" d="M54.76,38.75l.47-.63,2.74,2,0,.12a1.56,1.56,0,0,1-1.2,0C56.08,39.75,55.46,39.26,54.76,38.75Z"/><path class="cls-2" d="M47.46,35.9c0,.36-.12.58-.45.57l-2.14-.11c-.24,0-.44-.1-.43-.4s.23-.37.45-.37c.63,0,1.26,0,1.89.06A2.78,2.78,0,0,1,47.46,35.9Z"/><path class="cls-2" d="M51.57,40.1,51,39.48l2.46-1.94.45.57Z"/><path class="cls-2" d="M37.69,40.24H35c-.13-.52,0-.69.4-.75.62-.07,1.26-.11,1.89-.12C37.69,39.36,37.78,39.57,37.69,40.24Z"/><path class="cls-2" d="M37.9,38l.39-.48,2.79,1.92-.47.6Z"/><path class="cls-2" d="M32.83,38.45a6.1,6.1,0,0,0,3.39-1.65.5.5,0,0,1,0,.76,3.89,3.89,0,0,1-2.39,1.25A.9.9,0,0,1,32.83,38.45Z"/><path class="cls-2" d="M61.57,59.78l.09-1a5.15,5.15,0,0,1,1.88-.19v.9Z"/><path class="cls-2" d="M50.9,36.15l-.4-.28.86-1.08.37.25A2.29,2.29,0,0,1,50.9,36.15Z"/><path d="M55.55,56c-.26,0-.39-.12-.39-.34a.34.34,0,0,1,.35-.36c.22,0,.34.13.35.34A.33.33,0,0,1,55.55,56Z"/><path d="M56.6,47.83c-.25.17-.38.31-.53.33a.31.31,0,0,1-.35-.34.3.3,0,0,1,.36-.33C56.23,47.52,56.36,47.67,56.6,47.83Z"/><path d="M31.5,55.73c-.09.07-.21.23-.35.27s-.36-.08-.37-.31a.34.34,0,0,1,.32-.38C31.32,55.28,31.44,55.42,31.5,55.73Z"/><path d="M31.08,47.82a2.21,2.21,0,0,1-.52.35c-.24,0-.34-.14-.34-.34s.12-.39.34-.34S30.84,47.66,31.08,47.82Z"/><path d="M55.72,26.49c0,.31-.21.51-.41.49a.37.37,0,0,1-.35-.37c0-.2.2-.43.39-.37A1.4,1.4,0,0,1,55.72,26.49Z"/><path d="M53.86,21.44a1.38,1.38,0,0,1-.23-.33.35.35,0,0,1,.39-.37.3.3,0,0,1,.3.35C54.31,21.31,54.18,21.43,53.86,21.44Z"/><path d="M30.28,27a1,1,0,0,1-.22-.36.34.34,0,0,1,.37-.38.34.34,0,0,1,.34.36C30.77,26.81,30.59,27,30.28,27Z"/><path d="M32.08,20.43a.3.3,0,0,1,.28.35.33.33,0,0,1-.37.34.32.32,0,0,1-.33-.36C31.67,20.55,31.79,20.41,32.08,20.43Z"/><path d="M42.71,27.44a.78.78,0,0,0-.24-.71.63.63,0,0,1,0-.95.85.85,0,0,1,1.16-.06.65.65,0,0,1,.09,1,1.14,1.14,0,0,0-.3.93c0,.1,0,.24,0,.3a.65.65,0,0,1-.37.25c-.1,0-.25-.15-.3-.27A1.51,1.51,0,0,1,42.71,27.44Z"/></g></svg>