<?xml version="1.0" encoding="UTF-8"?>
<svg id="Layer_1" data-name="Layer 1" xmlns="http://www.w3.org/2000/svg" version="1.1" viewBox="0 0 89.9 81.5">
  <defs>
    <style>
      .cls-1 {
        fill: #b99110;
        stroke-width: 0px;
      }
    </style>
  </defs>
  <path class="cls-1" d="M42.7,19c-.6,3.9-2.5,6-6,6,3,.4,6,.7,6,6,0-4.3,2.3-5.9,6-6-3.6-.1-6.1-1.5-6-6h0ZM54.7,20.1c-.9,1.3-1.9,2-3.6,1,1.4,1.1,1.7,2.3,1,3.6.8-1,1.6-2.1,3.6-1-1.7-.9-1.8-2.2-1-3.6h0ZM26.1,21c-.3,1.8-1.1,2.7-2.7,2.7,1.3.2,2.7.3,2.7,2.7,0-1.9,1-2.6,2.7-2.7-1.6,0-2.7-.7-2.7-2.7ZM60.9,23.3c-.3,1.8-1.1,2.7-2.7,2.7,1.3.2,2.7.3,2.7,2.7,0-1.9,1-2.6,2.7-2.7-1.6,0-2.7-.7-2.7-2.7ZM31.8,28c-1.5,5-4.5,4.5-7.4,4.1,3.3,1,4.6,3.5,4.1,7.4,1.2-4.3,4-4.9,7.4-4.1-3.5-1.1-5.3-3.3-4.1-7.4h0ZM49.3,28.4c-.8,5.8-3.7,8.8-8.8,8.8,4.3.6,8.8,1.1,8.8,8.8,0-6.3,3.4-8.6,8.8-8.8-5.2-.2-8.9-2.2-8.8-8.8ZM62.1,32c-1.2,2-2.8,2.7-4.7,1.9,1.5.9,3.1,1.8,1.9,4.6,1-2.4,2.6-2.7,4.7-1.9-1.9-.9-3-2.2-1.9-4.7ZM25.3,39.8c.9,1.6.7,2.8-.5,3.7,1.2-.6,2.3-1.3,3.7.5-1.2-1.5-.8-2.7.5-3.7-1.3.9-2.6,1.1-3.7-.5h0ZM38.1,39.9c1.1,2.5,0,3.9-2,4.8,2.1-.8,3.8-.4,4.8,2-1.2-3,.4-3.9,2-4.8-2,.8-3.5,0-4.8-2h0ZM59.4,41c-2.5,6.1-6.4,8.6-12,7.1,4.5,1.9,9.2,3.6,7.1,12,1.6-6.9,6-8.5,12-7.2-5.6-1.6-9.1-4.9-7.2-12h0ZM29.9,44.7c1.5,5.4,0,9.2-4.4,11.1,4.1-1.1,8.2-2.4,11.1,4.4-2.5-5.5-.3-8.9,4.4-11.1-4.7,1.8-8.7,1.4-11.1-4.4h0ZM45.7,50.4c-2,1.9-4,2.2-5.9.7,1.5,1.5,3,3,.7,5.9,1.9-2.4,3.9-2.3,5.9-.7-1.9-1.6-2.7-3.5-.7-5.9ZM62,54.9c-.3,1.8-1.1,2.7-2.7,2.7,1.3.2,2.7.3,2.7,2.7,0-1.9,1-2.6,2.7-2.7-1.6,0-2.7-.7-2.7-2.7ZM46.1,58.3c-.3,1.8-1.1,2.7-2.7,2.7,1.3.2,2.7.3,2.7,2.7,0-1.9,1-2.6,2.7-2.7-1.6,0-2.7-.7-2.7-2.7Z"/>
</svg>