<?xml version="1.0" encoding="UTF-8"?>
<svg id="Layer_1" data-name="Layer 1" xmlns="http://www.w3.org/2000/svg" version="1.1" viewBox="0 0 89.9 81.5">
  <defs>
    <style>
      .cls-1, .cls-2 {
        fill: #000;
      }

      .cls-1, .cls-3, .cls-4 {
        stroke-width: 0px;
      }

      .cls-2 {
        stroke: #1d1d1b;
        stroke-miterlimit: 10;
        stroke-width: 1.2px;
      }

      .cls-3 {
        fill: #28348a;
      }

      .cls-4 {
        fill: #fff;
      }
    </style>
  </defs>
  <g id="YegrJ7.tif">
    <g>
      <path class="cls-1" d="M43.2,48.3c-1.7-.7-3.3-1.4-4.9-2-.6-.2-.8-.7-.7-1.1.1-.5.7-.8,1.1-.6,2,.7,4,1.5,5.9,2.6.1,0,.3.1.4,0,.8-.4,1.5-.9,2.3-1.3-.2-.2-.4-.3-.6-.4-1.6-1-3.1-2-4.9-2.7-.5-.2-.7-.7-.5-1.1.2-.5.7-.8,1.2-.5,1.4.7,2.7,1.4,4.1,2.1.7.4,1.4.8,2.1,1.3.2.1.4.1.6,0,.4-.3.9-.6,1.4-.9.2-.1.2-.3.1-.5-.8-1.4-1.5-2.9-2.3-4.3,0-.1-.1-.2-.2-.3-.7-.7-.6-1.4.3-1.9.9-.5,1.9-.8,2.9-.9,3.1-.2,6.1.1,9,1.5.5.3,1,.7,1.5,1.1.8.7,1,1.7.7,2.6-1.2,3.8-3.1,7.1-6.4,9.4-.3.2-.7.4-1.1.4-.4.1-.8-.2-1-.7-.7-1.6-1.4-3.1-2.1-4.7,0,0,0-.2-.1-.2,0,0,0,0-.1,0-1.6,1.1-1.7,1.1-1.9,3.3-.2,1.4-.3,2.7-.4,4.1,0,.2,0,.5-.2.7-.2.4-.6.5-1,.4-.4-.1-.7-.5-.6-1,.2-1.6.3-3.2.5-4.8,0,0,0-.1,0-.2-.7.4-1.4.8-2,1.2,0,0-.1.2-.2.3-.4,2-.7,4.1-1.1,6.1-.1.6-.5,1-1,.9-.5,0-.8-.6-.8-1.2.2-1.6.5-3.1.7-4.8-.8.5-1.6,1-2.4,1.4,0,0-.1.2-.1.3-.2,1.6-.4,3.2-.6,4.7,0,.4-.2.8-.6,1-.7.3-1.3-.2-1.3-1,.1-1.1.3-2.1.4-3.2,0-.2,0-.3,0-.6-.6.3-1.1.6-1.6,1-1.1.7-2.3,1.4-3.4,2.1-.2.1-.3.3-.3.5-.3,1.3-.5,2.6-.8,3.8,0,.4-.4.8-.8.7-.3,0-.7-.2-.8-.5-.1-.2,0-.6,0-.9.2-1.1.5-2.1.7-3.1,0-.1,0-.2,0-.4-1.3-.2-2.7-.4-4-.6-.3,0-.7-.1-1-.2-.6-.1-.9-.5-.8-1.1,0-.5.5-.8,1.1-.7,1.5.2,2.9.5,4.4.7,0,0,.1,0,.2,0,.8.2,1.5,0,2.3-.5,1.2-.8,2.5-1.5,3.7-2.2.2,0,.3-.2.5-.3-.9-.4-1.8-.8-2.7-1.2-.2,0-.4-.2-.5-.3-.5-.3-.7-.8-.4-1.2.2-.4.7-.6,1.2-.4.7.3,1.3.6,2,.9.8.3,1.5.6,2.3.9,0,0,.2,0,.3,0,.8-.5,1.7-1,2.7-1.6ZM55.5,48.5c2.7-2,4.2-4.9,5.3-8.1.1-.4,0-.9-.3-1.1-.7-.4-1.3-.9-2-1.1-1.5-.4-3.1-.6-4.7-.8-1.2-.1-2.5,0-3.7.4,1.9,3.5,3.7,7.1,5.5,10.6Z"/>
      <path class="cls-3" d="M32.6,37c.5,0,1,.1,1.6.2.9.1,1.7,0,2.4-.5,1.4-1,.9-2.1,0-2.9-.6-.4-1.2-.8-1.8-1.3-2.1-1.5-2.2-4.8-.6-6.8.8-1.1,1.9-1.7,3.3-1.7.9,0,1.4.7,1,1.3-.1.2-.5.5-.8.5-1.2,0-2,.7-2.4,1.7-.5,1.2-.4,2.4.5,3.3.5.6,1.3.9,1.9,1.4,1.2.9,2.1,2.1,1.7,3.6-.3,1.4-1.3,2.2-2.6,2.8-.9.4-1.9.4-2.9.2-.6-.1-1.2-.1-1.7-.1-.7,0-1.1.4-1.2.9-.1.6.2,1.5.6,1.8.3.2.6.3.9.4.2,0,.4,0,.5,0,.5-.3,1-.3,1.3.1.3.4.2,1-.1,1.3-.5.5-1,.6-1.6.5-1.9-.3-3.3-1.3-3.4-3.5,0-1.7.9-2.9,2.6-3.2.3,0,.6,0,1,0Z"/>
      <path class="cls-3" d="M52.3,24.3c0,2.5-1.1,3.8-3.8,4.2-1,.1-2.1,0-3.1.2-1.1.2-2,.8-2.4,1.9-.2.5-.2.9,0,1.4.2.4.3.8,0,1.1-.2.2-.6.3-.9.3-.3,0-.6-.3-.8-.6-.8-1.3-.6-2.6.5-4,1.1-1.4,2.6-2,4.4-2,.7,0,1.4,0,2.1-.1,1.5-.2,2-.8,2-2.3,0-.2,0-.4,0-.5,0-.5.5-.8.9-.8.5,0,.8.4.8.9,0,.1,0,.2,0,.3Z"/>
      <path class="cls-2" d="M29.2,33.6c0-.7.4-1.3.9-1.3.5,0,.9.4,1,.9,0,.7-.4,1.3-1,1.3-.5,0-.9-.4-.9-.9Z"/>
      <path class="cls-2" d="M47.6,30.8c.6,0,1,.5,1,1.3,0,.5-.4.8-.9.8-.6,0-1-.5-1-1.2,0-.5.4-1,.9-1Z"/>
      <path class="cls-2" d="M43.6,24.1c-.6,0-1-.4-1-.9,0-.5.5-.9,1-.9.6,0,1,.4,1,.9,0,.5-.4.9-1.1.9Z"/>
    </g>
  </g>
  <path class="cls-4" d="M55.5,48.5c2.7-2,4.2-4.9,5.3-8.1.1-.4,0-.9-.3-1.1-.7-.4-1.3-.9-2-1.1-1.5-.4-3.1-.6-4.7-.8-1.2-.1-2.5,0-3.7.4,1.9,3.5,3.7,7.1,5.5,10.6Z"/>
  <path class="cls-2" d="M57.8,42.5c0,.5-.5,1-1.1,1-.5,0-1.2-.7-1.2-1.2,0-.5.6-1.1,1.2-1.1.5,0,1.2.7,1.1,1.3Z"/>
</svg>