<svg xmlns="http://www.w3.org/2000/svg" xmlns:xlink="http://www.w3.org/1999/xlink" viewBox="0 0 89.87 81.5"><defs><style>.cls-1,.cls-10,.cls-12,.cls-4,.cls-7{fill:none;}.cls-2{clip-path:url(#clip-path);}.cls-3{fill:#41ab34;}.cls-11,.cls-3,.cls-8{fill-rule:evenodd;}.cls-10,.cls-12,.cls-4,.cls-7{stroke:#010101;}.cls-4{stroke-linecap:round;stroke-linejoin:round;stroke-width:0.95px;}.cls-5{clip-path:url(#clip-path-2);}.cls-11,.cls-6{fill:#fff;}.cls-10,.cls-12,.cls-7{stroke-miterlimit:10;}.cls-7{stroke-width:0.91px;}.cls-8,.cls-9{fill:#010101;}.cls-10{stroke-width:0.91px;}.cls-12{stroke-width:0.91px;}</style><clipPath id="clip-path"><rect class="cls-1" x="11.55" y="11.36" width="33.06" height="50.36"/></clipPath><clipPath id="clip-path-2"><rect class="cls-1" x="43.72" y="15.4" width="32.43" height="46.33"/></clipPath></defs><g id="Spielfeld_leer" data-name="Spielfeld leer"><g class="cls-2"><path class="cls-3" d="M33.47,60.47s-14.51-5.2-16.9-8.3S12,43.37,16.53,38s4.08-4.86,4.08-4.86S15.53,27,19.41,20.63c2.45-4,8.2-4.8,11.52-3.6,3.52,1.29,6.06,4.75,5.62,5.66,0,0,1.9-.64,6.87-.66s6.28.51,6.28.51a11.62,11.62,0,0,1,5.49-5c3.24-1.26,9.45-.67,11,.53,2.71,2,5.09,2.78,4.73,8.75-.16,2.59-3.12,6.23-3.12,6.23a20.36,20.36,0,0,1,4,4.62C73,39.84,77,46.63,71.35,52.11,65.12,58.14,50.6,64.46,33.47,60.47Z"/><path class="cls-4" d="M33.47,60.47s-14.51-5.2-16.9-8.3S12,43.37,16.53,38s4.08-4.86,4.08-4.86S15.53,27,19.41,20.63c2.45-4,8.2-4.8,11.52-3.6,3.52,1.29,6.06,4.75,5.62,5.66,0,0,1.9-.64,6.87-.66s6.28.51,6.28.51a11.62,11.62,0,0,1,5.49-5c3.24-1.26,9.45-.67,11,.53,2.71,2,5.09,2.78,4.73,8.75-.16,2.59-3.12,6.23-3.12,6.23a20.36,20.36,0,0,1,4,4.62C73,39.84,77,46.63,71.35,52.11,65.12,58.14,50.6,64.46,33.47,60.47Z"/></g><g class="cls-5"><path class="cls-3" d="M54.49,60.48S69,55.29,71.4,52.19s4.6-8.8,0-14.2-4.09-4.86-4.09-4.86S72.44,27,68.56,20.64c-2.46-4-8.21-4.8-11.53-3.59-3.52,1.28-6.05,4.74-5.62,5.66,0,0-1.9-.65-6.86-.66s-6.29.51-6.29.51a11.62,11.62,0,0,0-5.49-5c-3.24-1.26-9.44-.68-11.05.52-2.71,2-5.08,2.79-4.72,8.75.15,2.6,3.11,6.23,3.11,6.23a20.61,20.61,0,0,0-4,4.62C15,39.85,11,46.64,16.62,52.13,22.84,58.15,37.36,64.48,54.49,60.48Z"/><path class="cls-4" d="M54.49,60.48S69,55.29,71.4,52.19s4.6-8.8,0-14.2-4.09-4.86-4.09-4.86S72.44,27,68.56,20.64c-2.46-4-8.21-4.8-11.53-3.59-3.52,1.28-6.05,4.74-5.62,5.66,0,0-1.9-.65-6.86-.66s-6.29.51-6.29.51a11.62,11.62,0,0,0-5.49-5c-3.24-1.26-9.44-.68-11.05.52-2.71,2-5.08,2.79-4.72,8.75.15,2.6,3.11,6.23,3.11,6.23a20.61,20.61,0,0,0-4,4.62C15,39.85,11,46.64,16.62,52.13,22.84,58.15,37.36,64.48,54.49,60.48Z"/></g><ellipse class="cls-6" cx="27.4" cy="24.87" rx="6.55" ry="5.43"/><ellipse class="cls-7" cx="27.4" cy="24.87" rx="6.55" ry="5.43"/><ellipse class="cls-6" cx="60.34" cy="24.87" rx="6.55" ry="5.43"/><ellipse class="cls-7" cx="60.34" cy="24.87" rx="6.55" ry="5.43"/><path class="cls-8" d="M27.32,22c1.23,0,2.23,1.57,2.23,3.51S28.55,29,27.32,29s-2.22-1.57-2.22-3.51S26.1,22,27.32,22Z"/><ellipse class="cls-9" cx="60.11" cy="25.47" rx="2.22" ry="3.51"/><path class="cls-3" d="M44,46.87c12.15,0,22,4.88,22,10.89S56.12,68.65,44,68.65s-22-4.88-22-10.89S31.81,46.87,44,46.87Z"/><path class="cls-10" d="M44,46.87c12.15,0,22,4.88,22,10.89S56.12,68.65,44,68.65s-22-4.88-22-10.89S31.81,46.87,44,46.87Z"/><path class="cls-4" d="M34.49,38s6.91-3,19.16,0"/><path class="cls-4" d="M38.51,41a22.89,22.89,0,0,1,11.24,0"/><path class="cls-8" d="M31,50.88c2.53-.88,5-.33,5.55,1.23s-1.08,3.55-3.6,4.43-5,.33-5.55-1.23S28.5,51.76,31,50.88Z"/><path class="cls-8" d="M57.58,50.86c2.54.85,4.19,2.81,3.67,4.38s-3,2.16-5.53,1.32-4.18-2.8-3.67-4.38S55,50,57.58,50.86Z"/><polygon class="cls-11" points="25.58 67.41 27.96 61.82 31.07 69.23 34.1 63.2 37.02 69.95 39.33 63.76 42.29 70.14 44.97 63.87 47.77 69.8 50.24 63.46 53.53 68.94 55.56 62.53 58.29 67.97 60.35 61.38 63.01 66.55 65.26 59.76 60.64 61.31 55.56 62.53 49.65 63.56 46.28 63.83 42.31 63.95 37.27 63.63 34.65 63.28 31.8 62.77 29.91 62.33 26.98 61.51 24.28 60.6 22.63 59.91 25.58 67.41"/><polygon class="cls-4" points="25.58 67.41 27.96 61.82 31.07 69.23 34.1 63.2 37.02 69.95 39.33 63.76 42.29 70.14 44.97 63.87 47.77 69.8 50.24 63.46 53.53 68.94 55.56 62.53 58.29 67.97 60.35 61.38 63.01 66.55 65.26 59.76 60.64 61.31 55.56 62.53 49.65 63.56 46.28 63.83 42.31 63.95 37.27 63.63 34.65 63.28 31.8 62.77 29.91 62.33 26.98 61.51 24.28 60.6 22.63 59.91 25.58 67.41"/><path class="cls-12" d="M22.12,59.64c21.71,9.57,43.42,0,43.42,0"/></g></svg>