<svg xmlns="http://www.w3.org/2000/svg" viewBox="0 0 48.25 25"><defs><style>.cls-1{fill:#3f3f3e;}</style></defs><g id="Spielfeld_leer" data-name="Spielfeld leer"><g id="a3v0WW.tif"><path class="cls-1" d="M9.47,14.12l-1.73-.07c-.34,0-.68-.06-1-.11a11.53,11.53,0,0,1-1.15-.2,13,13,0,0,1-1.26-.35,7.21,7.21,0,0,1-1.54-.72,4.61,4.61,0,0,1-1.36-1.24,2.65,2.65,0,0,1-.4-.85,1.47,1.47,0,0,1,0-.72,4.17,4.17,0,0,1,.65-1.34,7.78,7.78,0,0,1,1-1.14A11.36,11.36,0,0,1,4.15,6.24,15.43,15.43,0,0,1,6,5.2C6.5,5,7.05,4.69,7.61,4.46s1-.38,1.55-.56.78-.26,1.18-.38.66-.18,1-.27l1.21-.31,1.11-.24,1-.2,1.26-.21,1.18-.18,1.52-.18L20,1.82c.46,0,.92,0,1.38-.05s.95,0,1.43,0,1,.06,1.45.11,1,.13,1.52.23a9.8,9.8,0,0,1,2.42.79,5.55,5.55,0,0,1,1,.62,2.91,2.91,0,0,1,.84.94,1.66,1.66,0,0,1,.15.61,3.45,3.45,0,0,1-.42,2.06,5.15,5.15,0,0,1-.75,1,9,9,0,0,1-1.6,1.35,12.7,12.7,0,0,1-1.52.87c-.58.28-1.16.55-1.76.79s-1.29.48-1.94.69c-.5.17-1,.31-1.5.45s-1,.27-1.52.39L18,13l-1.13.23-1.3.25-1.05.17-1.59.21c-.53.06-1.06.11-1.59.14ZM21.56,3.63l-1.62.11-1.45.16-1.26.16-1.52.26c-.51.09-1,.18-1.53.29S13,4.86,12.39,5s-1,.25-1.5.38-.84.23-1.25.36S8.56,6.1,8,6.29c-.38.14-.76.29-1.13.45a17.15,17.15,0,0,0-1.6.81,7.92,7.92,0,0,0-1.39,1,2.94,2.94,0,0,0-.76,1,.73.73,0,0,0-.07.41,1.1,1.1,0,0,0,.29.5,3,3,0,0,0,1,.63A7,7,0,0,0,6,11.48a11.37,11.37,0,0,0,1.74.16q1,0,2,0c.4,0,.79,0,1.19-.09s.68-.06,1-.11.75-.09,1.13-.15l.95-.14,1.16-.2,1.14-.22L18,10.33c.56-.12,1.12-.26,1.67-.4s1-.26,1.44-.39l1-.3c.43-.14.87-.29,1.3-.45s.82-.32,1.22-.5a10.85,10.85,0,0,0,1.5-.81,4.79,4.79,0,0,0,1.24-1.09,1.84,1.84,0,0,0,.4-1,.79.79,0,0,0-.22-.68,2.56,2.56,0,0,0-.58-.39A4.91,4.91,0,0,0,25.88,4c-.38-.08-.75-.15-1.13-.21a13.26,13.26,0,0,0-1.67-.12Z"/><path class="cls-1" d="M4,14.1l.46.16a13.53,13.53,0,0,0,1.65.48c.37.09.74.18,1.11.24s.87.15,1.31.2,1,.1,1.43.13a19.06,19.06,0,0,0,2,0c.62,0,1.24-.07,1.85-.13s1-.11,1.5-.18l1.53-.23c.4-.07.8-.16,1.2-.25s.81-.17,1.21-.27.71-.19,1.06-.3.6-.17.9-.29.91-.35,1.35-.55a5.11,5.11,0,0,0,1.33-.83,2.42,2.42,0,0,0,.5-.6.23.23,0,0,1,.11-.08L25.94,11c.27-.12.53-.26.79-.39.07,0,.1,0,.14,0a1.73,1.73,0,0,1,.27.91,1.71,1.71,0,0,1-.22.82A3.74,3.74,0,0,1,26,13.45a7.79,7.79,0,0,1-1.4.94,13.91,13.91,0,0,1-2,.91c-.63.22-1.27.43-1.91.62s-1,.25-1.49.35-.93.2-1.4.26c-.64.1-1.29.18-1.94.23s-1.3.1-1.95.11-1.27,0-1.91,0-1-.06-1.49-.11a13.08,13.08,0,0,1-1.4-.19c-.48-.08-1-.19-1.44-.32a9.09,9.09,0,0,1-2-.74,5.67,5.67,0,0,1-1.22-.82c-.16-.16-.3-.34-.45-.51C4,14.16,4,14.13,4,14.1Z"/><path class="cls-1" d="M6.65,16.54l.1.07a7.17,7.17,0,0,0,1,.54A11.42,11.42,0,0,0,9,17.63c.4.11.8.23,1.21.31s.82.15,1.24.21a17.65,17.65,0,0,0,2.82.16c.49,0,1,0,1.48-.07s.92-.12,1.37-.2a10.28,10.28,0,0,0,1.54-.41,7.62,7.62,0,0,0,1.75-.84c.2-.14.38-.3.57-.45s.08-.05.1,0a1.76,1.76,0,0,1-.35,1.7,3.15,3.15,0,0,1-1.08.79,6,6,0,0,1-1.43.48c-.32.07-.64.12-1,.17a12.56,12.56,0,0,1-1.83.16c-.66,0-1.33,0-2,0a10.78,10.78,0,0,1-1.79-.2c-.42-.1-.84-.19-1.26-.3a8.9,8.9,0,0,1-1.33-.51,6.92,6.92,0,0,1-1.43-.91,4.49,4.49,0,0,1-1-1.09.36.36,0,0,1,0-.09Z"/><path class="cls-1" d="M16.84,20.49a.45.45,0,0,1,0,.08,2,2,0,0,1-.53.62,2.83,2.83,0,0,1-1,.51,5.05,5.05,0,0,1-1.09.24A8.24,8.24,0,0,1,13,22a6.08,6.08,0,0,1-1.28-.18,5.73,5.73,0,0,1-2-.88,4.53,4.53,0,0,1-1.17-1.18,1.81,1.81,0,0,1-.27-.58,1,1,0,0,1,0-.12l.1.06A7.1,7.1,0,0,0,9.88,20c.34.14.68.28,1,.39a9,9,0,0,0,1.63.38,10.58,10.58,0,0,0,1.69.1c.51,0,1-.05,1.54-.09a3.22,3.22,0,0,0,.86-.18A1.38,1.38,0,0,0,16.84,20.49Z"/><path class="cls-1" d="M9.12,21.35a2.75,2.75,0,0,0,.22.26,4.15,4.15,0,0,0,.9.71,4.46,4.46,0,0,0,1.11.45,5.22,5.22,0,0,0,1,.15c.26,0,.52,0,.78,0h.1s0,.05-.06.06a3.23,3.23,0,0,1-1,.48,2.35,2.35,0,0,1-1.15,0,2.88,2.88,0,0,1-1.48-.85,1.65,1.65,0,0,1-.46-1.17.31.31,0,0,1,0-.1Z"/><path class="cls-1" d="M8.36,9.59,9,9.4l1-.27,1.55-.38,1-.21c.4-.08.81-.14,1.22-.21l1-.14c.4,0,.8-.09,1.2-.11S17,8,17.5,8a20.68,20.68,0,0,1,2.23.1c.55.06,1.1.11,1.64.18s.83.14,1.24.21l0,0-.06,0-1.47.52-.4.12h-.21c-.59-.07-1.18-.17-1.78-.23s-1.05-.09-1.57-.12S16,8.83,15.38,8.82c-.82,0-1.65,0-2.47.09-.54,0-1.08.08-1.62.15s-.89.13-1.34.21-.67.13-1,.2l-.55.14h0Z"/></g><path class="cls-1" d="M41.52,18.08H38c0-.51,0-.82,0-.93a6.26,6.26,0,0,1,.57-2.85,8.58,8.58,0,0,1,2.28-2.5A16.11,16.11,0,0,0,42.85,10a2.43,2.43,0,0,0,.52-1.51,2.54,2.54,0,0,0-.91-2A3.53,3.53,0,0,0,40,5.69a3.77,3.77,0,0,0-2.5.85,4.52,4.52,0,0,0-1.38,2.59l-3.59-.44a6,6,0,0,1,2.12-4.24,7.55,7.55,0,0,1,5.18-1.74,7.82,7.82,0,0,1,5.36,1.76,5.36,5.36,0,0,1,2,4.11A4.5,4.5,0,0,1,46.45,11a16,16,0,0,1-3.12,3.15,5.94,5.94,0,0,0-1.54,1.66A5.49,5.49,0,0,0,41.52,18.08ZM38,23.35V19.43h3.92v3.92Z"/></g></svg>