<?xml version="1.0" encoding="UTF-8"?>
<svg id="Layer_1" data-name="Layer 1" xmlns="http://www.w3.org/2000/svg" version="1.1" viewBox="0 0 89.9 81.5">
  <defs>
    <style>
      .cls-1 {
        fill: #28348a;
      }

      .cls-1, .cls-2 {
        stroke-width: 0px;
      }

      .cls-2 {
        fill: #fff;
      }
    </style>
  </defs>
  <path class="cls-1" d="M32.8,32.7c.8-.8,2.2-.8,3,0,2.3,2.3,6,2.3,8.2,0,.4-.4.9-.6,1.5-.6s1.1.2,1.5.6c2.3,2.3,6,2.3,8.2,0,.4-.4.9-.6,1.5-.6s1.1.2,1.5.6c1.1,1.1,2.6,1.7,4.1,1.7s3-.6,4.1-1.7.7-1.9,0-2.6c-.7-.7-1.9-.7-2.6,0-.4.4-.9.6-1.5.6s-1.1-.2-1.5-.6c-1.1-1.1-2.6-1.7-4.1-1.7,0,0,0,0,0,0-1.6,0-3,.6-4.1,1.7-.8.8-2.2.8-3,0-1.1-1.1-2.6-1.7-4.1-1.7,0,0,0,0,0,0-1.6,0-3,.6-4.1,1.7-.8.8-2.2.8-3,0-2.3-2.3-6-2.3-8.2,0-.8.8-2.2.8-3,0-.7-.7-1.9-.7-2.6,0s-.7,1.9,0,2.6c2.3,2.3,6,2.3,8.2,0Z"/>
  <path class="cls-2" d="M63.8,39.6c-.4.4-.9.6-1.5.6s-1.1-.2-1.5-.6c-1.1-1.1-2.6-1.7-4.1-1.7,0,0,0,0,0,0-1.6,0-3,.6-4.1,1.7-.8.8-2.2.8-3,0-1.1-1.1-2.6-1.7-4.1-1.7,0,0,0,0,0,0-1.6,0-3,.6-4.1,1.7-.8.8-2.2.8-3,0-2.3-2.3-6-2.3-8.2,0-.8.8-2.2.8-3,0-.7-.7-1.9-.7-2.6,0-.7.7-.7,1.9,0,2.6,2.3,2.3,6,2.3,8.2,0,.8-.8,2.2-.8,3,0,2.3,2.3,6,2.3,8.2,0,.4-.4.9-.6,1.5-.6s1.1.2,1.5.6c2.3,2.3,6,2.3,8.2,0,.4-.4.9-.6,1.5-.6s1.1.2,1.5.6c1.1,1.1,2.6,1.7,4.1,1.7s3-.6,4.1-1.7c.7-.7.7-1.9,0-2.6-.7-.7-1.9-.7-2.6,0Z"/>
  <path class="cls-1" d="M63.8,49c-.4.4-.9.6-1.5.6s-1.1-.2-1.5-.6c-1.1-1.1-2.6-1.7-4.1-1.7,0,0,0,0,0,0-1.6,0-3,.6-4.1,1.7-.8.8-2.2.8-3,0-1.1-1.1-2.6-1.7-4.1-1.7,0,0,0,0,0,0-1.6,0-3,.6-4.1,1.7-.8.8-2.2.8-3,0-2.3-2.3-6-2.3-8.2,0-.8.8-2.2.8-3,0-.7-.7-1.9-.7-2.6,0s-.7,1.9,0,2.6c2.3,2.3,6,2.3,8.2,0,.8-.8,2.2-.8,3,0,2.3,2.3,6,2.3,8.2,0,.4-.4.9-.6,1.5-.6s1.1.2,1.5.6c2.3,2.3,6,2.3,8.2,0,.4-.4.9-.6,1.5-.6s1.1.2,1.5.6c1.1,1.1,2.6,1.7,4.1,1.7s3-.6,4.1-1.7c.7-.7.7-1.9,0-2.6-.7-.7-1.9-.7-2.6,0Z"/>
</svg>