<svg xmlns="http://www.w3.org/2000/svg" viewBox="0 0 200 200"><defs><style>.cls-1{fill:#1d1d1b;}</style></defs><g id="Strudel"><g id="a3v0WW.tif"><path class="cls-1" d="M71.81,108.67c-3-.12-5.72-.19-8.44-.35-1.65-.09-3.3-.28-4.93-.52-1.89-.28-3.77-.57-5.62-1-2.06-.48-4.11-1-6.13-1.7a34.54,34.54,0,0,1-7.51-3.53,22.29,22.29,0,0,1-6.58-6,12.2,12.2,0,0,1-2-4.1,7.11,7.11,0,0,1,.14-3.52,20,20,0,0,1,3.15-6.51,36.34,36.34,0,0,1,4.94-5.58,54.2,54.2,0,0,1,7-5.53,73.08,73.08,0,0,1,8.8-5c2.66-1.26,5.33-2.49,8-3.6,2.48-1,5-1.89,7.55-2.77,1.89-.65,3.81-1.24,5.73-1.81,1.59-.48,3.21-.91,4.82-1.33,2-.51,3.93-1,5.9-1.49,1.8-.42,3.61-.79,5.42-1.16,1.61-.34,3.22-.69,4.83-1,2-.38,4.11-.72,6.17-1,1.91-.31,3.83-.62,5.75-.87q3.69-.48,7.38-.85c2.25-.23,4.49-.43,6.74-.56s4.51-.2,6.77-.23,4.62,0,6.92.07,4.74.29,7.09.56,4.94.64,7.38,1.13A47.63,47.63,0,0,1,163,54.15a27.65,27.65,0,0,1,5,3,13.92,13.92,0,0,1,4.1,4.6,8.19,8.19,0,0,1,.72,2.94,17,17,0,0,1-2.05,10,25.07,25.07,0,0,1-3.67,5.14,42.09,42.09,0,0,1-7.79,6.55,57.9,57.9,0,0,1-7.37,4.24c-2.84,1.33-5.68,2.68-8.59,3.84-3.1,1.24-6.27,2.31-9.44,3.37-2.41.81-4.86,1.51-7.3,2.19s-4.91,1.29-7.38,1.9c-2,.49-3.92.94-5.9,1.37-1.83.41-3.67.77-5.51,1.14-2.1.41-4.19.82-6.3,1.2-1.7.3-3.41.58-5.13.82-2.58.38-5.16.76-7.75,1.05s-5.13.52-7.71.69C77.77,108.43,74.66,108.53,71.81,108.67Zm58.83-51.09c-2.85.2-5.35.35-7.84.57s-4.72.47-7.08.75c-2,.24-4.08.5-6.12.81-2.47.38-4.94.8-7.4,1.23s-5,.9-7.45,1.41c-2.92.59-5.84,1.22-8.74,1.9-2.45.57-4.88,1.21-7.3,1.87-2,.54-4,1.09-6,1.73-2.65.85-5.29,1.76-7.91,2.7-1.85.67-3.68,1.39-5.47,2.18a80.3,80.3,0,0,0-7.81,3.93,40.31,40.31,0,0,0-6.77,4.81A14.14,14.14,0,0,0,41,86.13a3.11,3.11,0,0,0-.35,2,5.35,5.35,0,0,0,1.4,2.41,14.21,14.21,0,0,0,4.74,3.1,34.8,34.8,0,0,0,8.13,2.19,57,57,0,0,0,8.45.74c3.22,0,6.44,0,9.66-.14,1.92-.06,3.85-.26,5.77-.42,1.65-.15,3.29-.32,4.94-.52,1.82-.22,3.64-.48,5.46-.74,1.55-.21,3.09-.43,4.64-.68,1.89-.32,3.77-.67,5.65-1s3.69-.67,5.52-1c2.8-.58,5.59-1.17,8.37-1.8s5.43-1.25,8.13-1.94c2.34-.6,4.67-1.26,7-1.93q2.34-.67,4.66-1.44c2.11-.7,4.23-1.4,6.31-2.18s4-1.6,5.95-2.47a52.09,52.09,0,0,0,7.32-3.94,23.23,23.23,0,0,0,6-5.29,8.87,8.87,0,0,0,2-4.85,3.87,3.87,0,0,0-1.08-3.32A11.57,11.57,0,0,0,156.86,61a21.75,21.75,0,0,0-5.2-1.78c-1.82-.37-3.65-.74-5.49-1a62.67,62.67,0,0,0-8.1-.6C135.48,57.54,132.88,57.58,130.64,57.58Z"/><path class="cls-1" d="M45.09,108.54c.81.29,1.52.56,2.24.81a72.13,72.13,0,0,0,8,2.34c1.8.41,3.6.85,5.42,1.18,2.12.37,4.24.7,6.38.95,2.31.27,4.64.49,7,.61a82.44,82.44,0,0,0,9.69,0c3-.19,6-.37,9-.64,2.43-.22,4.84-.55,7.26-.88s5-.72,7.45-1.14c2-.34,3.92-.76,5.86-1.18s3.93-.85,5.87-1.33c1.74-.44,3.47-.94,5.19-1.45,1.46-.43,2.93-.86,4.35-1.4,2.22-.84,4.43-1.74,6.61-2.71a25.26,25.26,0,0,0,6.43-4,11.46,11.46,0,0,0,2.46-2.91,1.09,1.09,0,0,1,.52-.43c2.37-1,4.75-2,7.1-3,1.32-.56,2.59-1.22,3.87-1.86.32-.16.48-.13.69.19a8.33,8.33,0,0,1,1.32,4.4,8.15,8.15,0,0,1-1.08,4,19.14,19.14,0,0,1-4.58,5.28,40.85,40.85,0,0,1-6.8,4.57,66,66,0,0,1-9.73,4.42c-3.08,1.1-6.2,2.1-9.33,3-2.39.69-4.82,1.22-7.25,1.74-2.25.49-4.52.94-6.79,1.26-3.15.45-6.31.85-9.47,1.12s-6.32.46-9.48.54-6.21,0-9.31-.08c-2.42-.08-4.84-.27-7.25-.51s-4.56-.52-6.82-.92-4.67-1-7-1.55a46.66,46.66,0,0,1-9.58-3.64,26,26,0,0,1-5.9-4c-.81-.76-1.49-1.63-2.23-2.46A2,2,0,0,1,45.09,108.54Z"/><path class="cls-1" d="M58.09,120.44l.5.33a30.48,30.48,0,0,0,4.75,2.62,45.37,45.37,0,0,0,6.2,2.34c1.94.55,3.88,1.11,5.85,1.54s4,.73,6,1a85.13,85.13,0,0,0,13.73.76c2.41-.05,4.82-.14,7.22-.36,2.23-.21,4.45-.55,6.65-1a50.08,50.08,0,0,0,7.51-2,36.52,36.52,0,0,0,8.49-4.09c1-.66,1.88-1.44,2.8-2.18.31-.24.36-.25.47.12a8.48,8.48,0,0,1-1.69,8.23,14.94,14.94,0,0,1-5.24,3.87,29.21,29.21,0,0,1-7,2.32c-1.56.34-3.13.59-4.69.84a63,63,0,0,1-8.88.77c-3.23.07-6.46.09-9.69,0a49.78,49.78,0,0,1-8.69-1c-2.06-.44-4.13-.89-6.16-1.44a38.52,38.52,0,0,1-6.48-2.49,32.61,32.61,0,0,1-6.93-4.42,20.83,20.83,0,0,1-4.66-5.33c-.08-.13-.14-.26-.21-.39Z"/><path class="cls-1" d="M107.7,139.67a2.48,2.48,0,0,1-.12.38,9.33,9.33,0,0,1-2.58,3,14.81,14.81,0,0,1-4.71,2.49A25.23,25.23,0,0,1,95,146.73a41.23,41.23,0,0,1-6,.28,31.14,31.14,0,0,1-6.22-.85,28.27,28.27,0,0,1-9.56-4.3,21.8,21.8,0,0,1-5.73-5.76,8.42,8.42,0,0,1-1.3-2.82c0-.15,0-.3-.08-.56.21.13.34.2.46.29a33.79,33.79,0,0,0,7.24,4.21c1.63.69,3.27,1.36,5,1.91A46.33,46.33,0,0,0,86.69,141a49.2,49.2,0,0,0,8.22.51c2.51-.06,5-.23,7.53-.42a16.1,16.1,0,0,0,4.16-.89C107,140,107.28,139.86,107.7,139.67Z"/><path class="cls-1" d="M70.1,143.85c.36.42.7.86,1.08,1.26a18.91,18.91,0,0,0,4.37,3.44,20.86,20.86,0,0,0,5.41,2.2,22.74,22.74,0,0,0,5.06.75c1.26,0,2.52,0,3.79-.06h.49a2,2,0,0,1-.28.29,14.76,14.76,0,0,1-5,2.33,11.82,11.82,0,0,1-5.61.12A13.74,13.74,0,0,1,72.22,150a8,8,0,0,1-2.28-5.7,3.49,3.49,0,0,1,0-.44Z"/><path class="cls-1" d="M66.39,86.63c1-.31,2-.65,3-.94,1.58-.45,3.15-.9,4.74-1.31,2.51-.63,5-1.25,7.55-1.84,1.65-.38,3.31-.74,5-1.05,2-.37,3.95-.69,5.93-1,1.63-.26,3.27-.51,4.91-.7,2-.21,3.9-.41,5.85-.52,2.52-.13,5-.24,7.58-.23a106.54,106.54,0,0,1,10.86.51c2.65.27,5.31.51,8,.87,2,.26,4,.68,6,1,0,0,.07,0,.16.09a1.85,1.85,0,0,1-.27.2l-7.15,2.51c-.65.22-1.31.43-2,.59a2.59,2.59,0,0,1-1,0c-2.88-.37-5.75-.83-8.64-1.14-2.55-.28-5.12-.45-7.68-.58q-4.32-.21-8.64-.27-6-.06-12,.41c-2.62.21-5.25.42-7.86.73-2.18.26-4.36.64-6.53,1-1.65.29-3.29.64-4.93,1-.9.2-1.79.46-2.68.7H66.4Z"/></g></g></svg>